<svg xmlns="http://www.w3.org/2000/svg" width="989.07" height="610.336">
  <path
    fill="#f2f2f2"
    d="M344.937-.002l644.127 381.685-19.372 32.69L325.566 32.69zm-139.999 32l644.126 381.684-19.371 32.692L185.566 64.69zm-124 35l644.127 381.684-19.372 32.692L61.567 99.69z"
  />
  <circle cx="569.511" cy="245.756" r="201.669" fill="#3f3d56" />
  <path
    d="M569.51 282.582a35.95 35.95 0 1 1 35.95-35.95 35.99 35.99 0 0 1-35.95 35.95zm0-70.145a34.196 34.196 0 1 0 34.197 34.196 34.234 34.234 0 0 0-34.196-34.196z"
    fill="#8e44ad"
    opacity=".3"
  />
  <path
    d="M569.51 315.025a68.392 68.392 0 1 1 68.393-68.392 68.47 68.47 0 0 1-68.392 68.392zm0-135.03a66.638 66.638 0 1 0 66.639 66.638 66.714 66.714 0 0 0-66.638-66.638z"
    fill="#8e44ad"
    opacity=".3"
  />
  <path
    d="M569.51 343.083a96.45 96.45 0 1 1 96.45-96.45 96.56 96.56 0 0 1-96.45 96.45zm0-191.147a94.697 94.697 0 1 0 94.697 94.697 94.804 94.804 0 0 0-94.696-94.697z"
    fill="#8e44ad"
    opacity=".3"
  />
  <path
    d="M569.51 379.91c-73.488 0-133.276-59.788-133.276-133.277 0-73.489 59.788-133.277 133.277-133.277 73.489 0 133.276 59.788 133.276 133.277 0 73.49-59.787 133.276-133.276 133.276zm0-264.8c-72.522 0-131.522 59-131.522 131.523 0 72.522 59 131.523 131.523 131.523 72.521 0 131.523-59.001 131.523-131.523 0-72.522-59.002-131.523-131.523-131.523z"
    fill="#8e44ad"
    opacity=".3"
  />
  <path
    d="M569.51 410.598c-90.41 0-163.965-73.554-163.965-163.965S479.1 82.668 569.511 82.668s163.965 73.554 163.965 163.965-73.554 163.965-163.965 163.965zm0-326.177c-89.443 0-162.211 72.768-162.211 162.212 0 89.444 72.768 162.211 162.212 162.211 89.444 0 162.211-72.767 162.211-162.211 0-89.444-72.767-162.212-162.211-162.212z"
    fill="#8e44ad"
    opacity=".3"
  />
  <circle cx="569.511" cy="245.756" r="16.66" fill="#8e44ad" opacity=".3" />
  <circle cx="612.475" cy="293.981" r="16.66" fill="#8e44ad" opacity=".3" />
  <circle cx="495.858" cy="286.967" r="16.66" fill="#8e44ad" opacity=".3" />
  <circle cx="569.511" cy="245.756" r="7.891" fill="#2f2e41" />
  <circle cx="495.858" cy="286.967" r="7.891" fill="#2f2e41" />
  <circle cx="612.475" cy="294.858" r="7.891" fill="#2f2e41" />
  <circle cx="937.775" cy="157.197" r="7.891" fill="#8e44ad" />
  <path
    fill="#2f2e41"
    d="M569.949 246.194h-1.754v-90.312h348.098v1.754H569.949v88.558z"
  />
  <path
    d="M937.775 179.995a22.797 22.797 0 1 1 22.797-22.798 22.823 22.823 0 0 1-22.797 22.798zm0-43.841a21.044 21.044 0 1 0 21.044 21.043 21.068 21.068 0 0 0-21.044-21.043z"
    fill="#2f2e41"
  />
  <circle cx="885.166" cy="384.294" r="7.891" fill="#8e44ad" />
  <path
    d="M885.166 407.09a22.797 22.797 0 1 1 22.797-22.796 22.823 22.823 0 0 1-22.797 22.797zm0-43.84a21.044 21.044 0 1 0 21.043 21.044 21.068 21.068 0 0 0-21.043-21.044z"
    fill="#2f2e41"
  />
  <circle cx="251.225" cy="194.024" r="7.891" fill="#8e44ad" />
  <path
    d="M251.225 216.821a22.797 22.797 0 1 1 22.797-22.797 22.823 22.823 0 0 1-22.797 22.797zm0-43.841a21.044 21.044 0 1 0 21.044 21.044 21.068 21.068 0 0 0-21.044-21.044z"
    fill="#2f2e41"
  />
  <path
    d="M496.735 286.967h-1.754v-88.573L273.132 194.9l.027-1.753 223.576 3.521zm366.51 98.203H611.598v-90.312h1.754v88.559h249.893z"
    fill="#2f2e41"
  />
</svg>
